REM DIRINDEX 1\2,1\4,1\5,1\6,1\7,1\3\8,1\3\9,1\3\10
REM DIRNAME cjc113,folder01,folder02,folder03,folder04,folder05,folder06,folder07,folder08,folder09
TITLE ""
FILE "DB4500_5th_6C_42.mp3" MP3
  TRACK 01 AUDIO
    TITLE "8:cjc113_4976"
    INDEX 01 00:00:00
  TRACK 02 AUDIO
    TITLE "0:"
    INDEX 01 00:01:09
  TRACK 03 AUDIO
    TITLE "9:cjc113_4977"
    INDEX 01 00:01:21
  TRACK 04 AUDIO
    TITLE "0:"
    INDEX 01 00:02:24
  TRACK 05 AUDIO
    TITLE "10:cjc113_4978"
    INDEX 01 00:02:36
  TRACK 06 AUDIO
    TITLE "0:"
    INDEX 01 00:05:16
  TRACK 07 AUDIO
    TITLE "8:cjc113_4979"
    INDEX 01 00:05:48
  TRACK 08 AUDIO
    TITLE "0:"
    INDEX 01 00:06:67
  TRACK 09 AUDIO
    TITLE "9:cjc113_4980"
    INDEX 01 00:07:00
  TRACK 10 AUDIO
    TITLE "0:"
    INDEX 01 00:08:24
  TRACK 11 AUDIO
    TITLE "10:cjc113_4981"
    INDEX 01 00:08:32
  TRACK 12 AUDIO
    TITLE "0:"
    INDEX 01 00:11:48
  TRACK 13 AUDIO
    TITLE "8:cjc113_4982"
    INDEX 01 00:12:07
  TRACK 14 AUDIO
    TITLE "0:"
    INDEX 01 00:13:28
  TRACK 15 AUDIO
    TITLE "9:cjc113_4983"
    INDEX 01 00:13:39
  TRACK 16 AUDIO
    TITLE "0:"
    INDEX 01 00:14:58
  TRACK 17 AUDIO
    TITLE "10:cjc113_4984"
    INDEX 01 00:14:66
  TRACK 18 AUDIO
    TITLE "0:"
    INDEX 01 00:19:22
  TRACK 19 AUDIO
    TITLE "8:cjc113_4985"
    INDEX 01 00:19:52
  TRACK 20 AUDIO
    TITLE "0:"
    INDEX 01 00:20:61
  TRACK 21 AUDIO
    TITLE "9:cjc113_4986"
    INDEX 01 00:20:67
  TRACK 22 AUDIO
    TITLE "0:"
    INDEX 01 00:22:13
  TRACK 23 AUDIO
    TITLE "10:cjc113_4987"
    INDEX 01 00:22:21
  TRACK 24 AUDIO
    TITLE "0:"
    INDEX 01 00:25:09
  TRACK 25 AUDIO
    TITLE "8:cjc113_4988"
    INDEX 01 00:25:37
  TRACK 26 AUDIO
    TITLE "0:"
    INDEX 01 00:26:46
  TRACK 27 AUDIO
    TITLE "9:cjc113_4989"
    INDEX 01 00:26:56
  TRACK 28 AUDIO
    TITLE "0:"
    INDEX 01 00:28:33
  TRACK 29 AUDIO
    TITLE "10:cjc113_4990"
    INDEX 01 00:28:35
  TRACK 30 AUDIO
    TITLE "0:"
    INDEX 01 00:31:65
  TRACK 31 AUDIO
    TITLE "8:cjc113_4991"
    INDEX 01 00:32:23
  TRACK 32 AUDIO
    TITLE "0:"
    INDEX 01 00:33:46
  TRACK 33 AUDIO
    TITLE "9:cjc113_4992"
    INDEX 01 00:33:56
  TRACK 34 AUDIO
    TITLE "0:"
    INDEX 01 00:34:67
  TRACK 35 AUDIO
    TITLE "10:cjc113_4993"
    INDEX 01 00:34:73
  TRACK 36 AUDIO
    TITLE "0:"
    INDEX 01 00:37:44
  TRACK 37 AUDIO
    TITLE "8:cjc113_4994"
    INDEX 01 00:38:12
  TRACK 38 AUDIO
    TITLE "0:"
    INDEX 01 00:39:29
  TRACK 39 AUDIO
    TITLE "9:cjc113_4995"
    INDEX 01 00:39:45
  TRACK 40 AUDIO
    TITLE "0:"
    INDEX 01 00:40:64
  TRACK 41 AUDIO
    TITLE "10:cjc113_4996"
    INDEX 01 00:41:04
  TRACK 42 AUDIO
    TITLE "0:"
    INDEX 01 00:45:10
  TRACK 43 AUDIO
    TITLE "8:cjc113_4997"
    INDEX 01 00:45:53
  TRACK 44 AUDIO
    TITLE "0:"
    INDEX 01 00:46:70
  TRACK 45 AUDIO
    TITLE "9:cjc113_4998"
    INDEX 01 00:47:09
  TRACK 46 AUDIO
    TITLE "0:"
    INDEX 01 00:48:32
  TRACK 47 AUDIO
    TITLE "10:cjc113_4999"
    INDEX 01 00:48:48
  TRACK 48 AUDIO
    TITLE "0:"
    INDEX 01 00:52:39
  TRACK 49 AUDIO
    TITLE "8:cjc113_5000"
    INDEX 01 00:53:04
  TRACK 50 AUDIO
    TITLE "0:"
    INDEX 01 00:53:72
  TRACK 51 AUDIO
    TITLE "9:cjc113_5001"
    INDEX 01 00:54:15
  TRACK 52 AUDIO
    TITLE "0:"
    INDEX 01 00:56:18
  TRACK 53 AUDIO
    TITLE "10:cjc113_5002"
    INDEX 01 00:56:33
  TRACK 54 AUDIO
    TITLE "0:"
    INDEX 01 01:00:15
  TRACK 55 AUDIO
    TITLE "8:cjc113_5003"
    INDEX 01 01:00:57
  TRACK 56 AUDIO
    TITLE "0:"
    INDEX 01 01:01:56
  TRACK 57 AUDIO
    TITLE "9:cjc113_5004"
    INDEX 01 01:01:74
  TRACK 58 AUDIO
    TITLE "0:"
    INDEX 01 01:03:14
  TRACK 59 AUDIO
    TITLE "10:cjc113_5005"
    INDEX 01 01:03:31
  TRACK 60 AUDIO
    TITLE "0:"
    INDEX 01 01:05:58
  TRACK 61 AUDIO
    TITLE "8:cjc113_5006"
    INDEX 01 01:06:24
  TRACK 62 AUDIO
    TITLE "0:"
    INDEX 01 01:07:39
  TRACK 63 AUDIO
    TITLE "9:cjc113_5007"
    INDEX 01 01:07:53
  TRACK 64 AUDIO
    TITLE "0:"
    INDEX 01 01:08:74
  TRACK 65 AUDIO
    TITLE "10:cjc113_5008"
    INDEX 01 01:09:14
  TRACK 66 AUDIO
    TITLE "0:"
    INDEX 01 01:11:51
  TRACK 67 AUDIO
    TITLE "8:cjc113_5009"
    INDEX 01 01:12:17
  TRACK 68 AUDIO
    TITLE "0:"
    INDEX 01 01:13:65
  TRACK 69 AUDIO
    TITLE "9:cjc113_5010"
    INDEX 01 01:14:02
  TRACK 70 AUDIO
    TITLE "0:"
    INDEX 01 01:15:31
  TRACK 71 AUDIO
    TITLE "10:cjc113_5011"
    INDEX 01 01:15:46
  TRACK 72 AUDIO
    TITLE "0:"
    INDEX 01 01:18:60
  TRACK 73 AUDIO
    TITLE "8:cjc113_5012"
    INDEX 01 01:19:27
  TRACK 74 AUDIO
    TITLE "0:"
    INDEX 01 01:20:40
  TRACK 75 AUDIO
    TITLE "9:cjc113_5013"
    INDEX 01 01:20:55
  TRACK 76 AUDIO
    TITLE "0:"
    INDEX 01 01:22:25
  TRACK 77 AUDIO
    TITLE "10:cjc113_5014"
    INDEX 01 01:22:42
  TRACK 78 AUDIO
    TITLE "0:"
    INDEX 01 01:26:44
